<?xml version="1.0" encoding="UTF-8"?>
<svg id="Layer_1" data-name="Layer 1" xmlns="http://www.w3.org/2000/svg" viewBox="0 0 117.17 117.18">
  <defs>
    <style>
      .cls-1 {
        fill: #f70d34;
      }
    </style>
  </defs>
  <path class="cls-1" d="M58.58,0C26.23,0,0,26.23,0,58.59s26.23,58.59,58.58,58.59,58.59-26.23,58.59-58.59S90.94,0,58.58,0ZM90.91,51.31s0,.06-.02.09l-6.56,30.04c-.42,2.18-2.33,3.76-4.55,3.76h-42.38c-2.22,0-4.13-1.58-4.55-3.76l-6.55-30.04s-.02-.06-.02-.09c-.46-2.52,1.21-4.92,3.73-5.38,1.59-.29,3.22.28,4.29,1.5l9.74,10.49,10.35-23.22v-.03c1.07-2.32,3.82-3.33,6.14-2.26,1,.46,1.8,1.26,2.26,2.26v.03l10.35,23.22,9.74-10.49c1.7-1.91,4.62-2.08,6.53-.38,1.2,1.06,1.76,2.68,1.48,4.26h.02Z"/>
</svg>