<?xml version="1.0" encoding="UTF-8"?>
<svg id="Layer_1" data-name="Layer 1" xmlns="http://www.w3.org/2000/svg" viewBox="0 0 97.46 97.46">
  <defs>
    <style>
      .cls-1 {
        fill: #f70d34;
      }
    </style>
  </defs>
  <path class="cls-1" d="M95.32,33.5L63.96,2.14c-2.85-2.85-7.48-2.85-10.33,0,0,0,0,0,0,0l-12.98,12.98-26.48,9.93c-2.45.91-4.22,3.06-4.66,5.64L.03,87.58c-.17.99.51,1.94,1.5,2.1.58.1,1.17-.09,1.59-.51l26.02-26.02c-.82-1.72-1.19-3.62-1.05-5.52.44-6.04,5.69-10.57,11.72-10.13s10.57,5.69,10.13,11.72c-.44,6.04-5.69,10.57-11.72,10.13-1.36-.1-2.69-.45-3.92-1.04l-26.02,26.02c-.71.71-.71,1.87,0,2.58.42.42,1.01.61,1.59.51l56.89-9.48c2.57-.43,4.72-2.2,5.64-4.64l9.94-26.51,12.98-12.97c2.85-2.85,2.85-7.48,0-10.33,0,0,0,0,0,0h0ZM79.2,49.62l-31.36-31.36,10.96-10.96,31.36,31.36-10.96,10.96Z"/>
</svg>