<?xml version="1.0" encoding="UTF-8"?>
<svg id="Layer_1" data-name="Layer 1" xmlns="http://www.w3.org/2000/svg" viewBox="0 0 109.17 134.76">
  <defs>
    <style>
      .cls-1 {
        fill: #f70d34;
      }
    </style>
  </defs>
  <path class="cls-1" d="M109.13,39.26l-4.51-3.68.03,38.01c1.78-1.34,3.11-2.41,4.52-3.87l-.04-30.46ZM101.75,32.97h-24.06l-.1,2.92c-.07.98-.84,1.45-1.64,1.34-1.84-.24-.87-2.62-1.43-2.79-.24-.07-.55-.06-.85-.04-.99.05-1.72-.43-1.78-1.33-.06-.77.51-1.54,1.49-1.51l2.77-.08V7.4s-43.16,0-43.16,0v24.01c.91.29,1.81.04,2.78.15.98-.03,1.55.74,1.49,1.51-.15,1.9-2.5,1.06-2.75,1.46-.12.21-.11.56-.09.84.08,1.1-.45,1.88-1.47,1.88-.78,0-1.45-.62-1.4-1.6-.07-.9.11-1.72-.09-2.69l-24.07.02.02,43.2h24.03c.22-1,.04-1.9.11-2.85.03-1.02.81-1.51,1.66-1.41,1.77.22.9,2.47,1.37,2.73.52.29,2.4-.37,2.66,1.3.11.68-.28,1.52-1.2,1.63-1.07.13-2.05-.15-3.06.17l.02,22.53c1.04.11,1.85.03,2.78.05.95.03,1.54.71,1.48,1.53-.05.73-.61,1.33-1.49,1.31-.97.11-1.87-.14-2.79.15v24.04s43.2-.01,43.2-.01l-.03-24.1-2.77-.07c-.96.02-1.55-.72-1.49-1.51.12-1.97,2.62-1.11,4.26-1.39v-22.61c-1.03-.12-1.86-.04-2.78-.06-1.03-.01-1.59-.82-1.46-1.66.34-2.26,3.04-.16,2.83-2.12-.11-1.12.42-1.93,1.45-1.93.83.01,1.49.65,1.41,1.66.06.88-.1,1.7.11,2.62h24.05s-.01-43.21-.01-43.21ZM34.42,67.78c0,1.03-.66,1.61-1.47,1.6-.74-.01-1.4-.57-1.41-1.47v-5.1c-.01-.97.58-1.61,1.41-1.62.87-.01,1.47.61,1.47,1.6v4.99ZM34.42,57.04c0,1.08-.66,1.64-1.48,1.64-.77-.01-1.4-.6-1.4-1.53v-5.1c0-.94.61-1.56,1.42-1.56.84-.01,1.46.57,1.46,1.55v5ZM32.96,47.97c-.81,0-1.42-.62-1.42-1.57v-5.1c0-.93.63-1.5,1.4-1.51.82-.01,1.47.56,1.47,1.5l.02,4.99c0,1.12-.63,1.69-1.47,1.69ZM46.39,103.19h-4.98c-.97.01-1.56-.51-1.61-1.29-.06-.95.54-1.57,1.6-1.57h4.86c.97,0,1.63.43,1.69,1.3.05.81-.41,1.56-1.56,1.56ZM46.25,77.6h-4.85c-.91,0-1.5-.45-1.6-1.25-.09-.78.4-1.6,1.38-1.61h5.28c.93-.01,1.47.64,1.49,1.36.02,1-.64,1.5-1.7,1.5ZM46.39,34.4h-4.98c-.97,0-1.56-.51-1.61-1.29-.06-.96.54-1.57,1.6-1.57h4.86c.97-.01,1.63.43,1.69,1.3.05.81-.41,1.56-1.56,1.56ZM57.14,103.19h-4.99c-.99.01-1.6-.47-1.66-1.29-.06-.98.57-1.57,1.66-1.57h4.85c.97,0,1.6.45,1.65,1.3.05.8-.37,1.55-1.51,1.56ZM57.13,77.59h-4.98c-.92.01-1.56-.41-1.65-1.22-.09-.84.42-1.63,1.43-1.63h5.29c.9,0,1.43.66,1.44,1.36.02.81-.47,1.49-1.53,1.49ZM57,34.38h-4.85c-.99-.01-1.59-.48-1.66-1.29-.08-1,.58-1.59,1.66-1.59h4.85c.97,0,1.61.48,1.66,1.33.05.95-.57,1.55-1.66,1.55ZM67.75,103.16h-5.12c-.89-.01-1.37-.59-1.43-1.27-.06-.86.45-1.57,1.43-1.58h5.12c.97-.01,1.55.5,1.6,1.32.06.9-.55,1.54-1.6,1.53ZM67.75,77.58h-5.11c-.94-.02-1.45-.68-1.44-1.47,0-.92.67-1.42,1.7-1.42h4.83c.99.01,1.62.57,1.63,1.42,0,.88-.61,1.47-1.61,1.47ZM67.75,34.35h-4.85c-.95,0-1.6-.4-1.69-1.24-.09-.86.45-1.64,1.48-1.63h5.22c.9.01,1.42.65,1.45,1.35.03.93-.6,1.52-1.61,1.52ZM74.74,41.29c0-.94.66-1.51,1.47-1.5.77.01,1.4.58,1.4,1.51v4.98c0,1.06-.63,1.64-1.4,1.65-.82,0-1.47-.57-1.47-1.51v-5.13ZM76.19,50.49c.81,0,1.42.62,1.42,1.56v4.98c0,1.04-.66,1.59-1.41,1.6-.79.01-1.46-.55-1.46-1.46v-5.13c-.01-.98.61-1.56,1.45-1.55ZM76.45,69.3c-.9.13-1.7-.37-1.7-1.4l-.02-5.11c0-.99.6-1.61,1.47-1.6.83.01,1.42.64,1.42,1.62v4.7c.01,1.06-.42,1.68-1.17,1.79ZM79.16,79.06c-.37.81-.1,2.87.96,3.04l17.97.1,1.75-3.14h-20.68ZM98.02,26.96l-17.91.11c-1.02.17-1.28,2.08-.99,3.02h20.65c-.49-1.48-1.14-2.01-1.75-3.13ZM82.19,105.57c-1-.75-1.99-1.35-3.14-1.94l-.02,21.86c1.22-.55,2.07-1.17,3.17-1.91v-18.01ZM35.52,130.24l3.81,4.52h30.55l3.75-4.52h-38.11ZM69.83,0h-30.5l-3.77,4.52h38c-1.09-1.68-2.44-2.99-3.73-4.52ZM29.04,26.96l-17.91.03c-.65,1.08-1.33,1.84-1.79,3.11h20.73c.25-1.58-.11-2.43-1.03-3.14ZM30.1,103.64c-1.15.59-2.12,1.19-3.15,1.94l.03,18.11,3.14,1.8-.02-21.85ZM29.99,79.04l-20.68.03c.52,1.24,1.16,2.04,1.83,3.12h18.13c.86-1.14,1.08-2.08.72-3.15ZM.01,39.27v30.53c1.43,1.32,2.69,2.47,4.49,3.79v-38S.01,39.27.01,39.27Z"/>
  <path class="cls-1" d="M101.75,32.97h-24.06l-.1,2.92c-.07.98-.84,1.45-1.64,1.34-1.84-.24-.87-2.62-1.43-2.79-.24-.07-.55-.06-.85-.04-.99.05-1.72-.43-1.78-1.33-.06-.77.51-1.54,1.49-1.51l2.77-.08V7.4s-43.16,0-43.16,0v24.01c.91.29,1.81.04,2.78.15.98-.03,1.55.74,1.49,1.51-.15,1.9-2.5,1.06-2.75,1.46-.12.21-.11.56-.09.84.08,1.1-.45,1.88-1.47,1.88-.78,0-1.45-.62-1.4-1.6-.07-.9.11-1.72-.09-2.69l-24.07.02.02,43.2h24.03c.22-1,.04-1.9.11-2.85.03-1.02.81-1.51,1.66-1.41,1.77.22.9,2.47,1.37,2.73.52.29,2.4-.37,2.66,1.3.11.68-.28,1.52-1.2,1.63-1.07.13-2.05-.15-3.06.17l.02,22.53c1.04.11,1.85.03,2.78.05.95.03,1.54.71,1.48,1.53-.05.73-.61,1.33-1.49,1.31-.97.11-1.87-.14-2.79.15v24.04s43.2-.01,43.2-.01l-.03-24.1-2.77-.07c-.96.02-1.55-.72-1.49-1.51.12-1.97,2.62-1.11,4.26-1.39v-22.61c-1.03-.12-1.86-.04-2.78-.06-1.03-.01-1.59-.82-1.46-1.66.34-2.26,3.04-.16,2.83-2.12-.11-1.12.42-1.93,1.45-1.93.83.01,1.49.65,1.41,1.66.06.88-.1,1.7.11,2.62h24.05s-.01-43.21-.01-43.21ZM34.42,67.78c0,1.03-.66,1.61-1.47,1.6-.74-.01-1.4-.57-1.41-1.47v-5.1c-.01-.97.58-1.61,1.41-1.62.87-.01,1.47.61,1.47,1.6v4.99ZM34.42,57.04c0,1.08-.66,1.64-1.48,1.64-.77-.01-1.4-.6-1.4-1.53v-5.1c0-.94.61-1.56,1.42-1.56.84-.01,1.46.57,1.46,1.55v5ZM32.96,47.97c-.81,0-1.42-.62-1.42-1.57v-5.1c0-.93.63-1.5,1.4-1.51.82-.01,1.47.56,1.47,1.5l.02,4.99c0,1.12-.63,1.69-1.47,1.69ZM46.39,103.19h-4.98c-.97.01-1.56-.51-1.61-1.29-.06-.95.54-1.57,1.6-1.57h4.86c.97,0,1.63.43,1.69,1.3.05.81-.41,1.56-1.56,1.56ZM46.25,77.6h-4.85c-.91,0-1.5-.45-1.6-1.25-.09-.78.4-1.6,1.38-1.61h5.28c.93-.01,1.47.64,1.49,1.36.02,1-.64,1.5-1.7,1.5ZM46.39,34.4h-4.98c-.97,0-1.56-.51-1.61-1.29-.06-.96.54-1.57,1.6-1.57h4.86c.97-.01,1.63.43,1.69,1.3.05.81-.41,1.56-1.56,1.56ZM57.14,103.19h-4.99c-.99.01-1.6-.47-1.66-1.29-.06-.98.57-1.57,1.66-1.57h4.85c.97,0,1.6.45,1.65,1.3.05.8-.37,1.55-1.51,1.56ZM57.13,77.59h-4.98c-.92.01-1.56-.41-1.65-1.22-.09-.84.42-1.63,1.43-1.63h5.29c.9,0,1.43.66,1.44,1.36.02.81-.47,1.49-1.53,1.49ZM57,34.38h-4.85c-.99-.01-1.59-.48-1.66-1.29-.08-1,.58-1.59,1.66-1.59h4.85c.97,0,1.61.48,1.66,1.33.05.95-.57,1.55-1.66,1.55ZM67.75,103.16h-5.12c-.89-.01-1.37-.59-1.43-1.27-.06-.86.45-1.57,1.43-1.58h5.12c.97-.01,1.55.5,1.6,1.32.06.9-.55,1.54-1.6,1.53ZM67.75,77.58h-5.11c-.94-.02-1.45-.68-1.44-1.47,0-.92.67-1.42,1.7-1.42h4.83c.99.01,1.62.57,1.63,1.42,0,.88-.61,1.47-1.61,1.47ZM67.75,34.35h-4.85c-.95,0-1.6-.4-1.69-1.24-.09-.86.45-1.64,1.48-1.63h5.22c.9.01,1.42.65,1.45,1.35.03.93-.6,1.52-1.61,1.52ZM74.74,41.29c0-.94.66-1.51,1.47-1.5.77.01,1.4.58,1.4,1.51v4.98c0,1.06-.63,1.64-1.4,1.65-.82,0-1.47-.57-1.47-1.51v-5.13ZM76.19,50.49c.81,0,1.42.62,1.42,1.56v4.98c0,1.04-.66,1.59-1.41,1.6-.79.01-1.46-.55-1.46-1.46v-5.13c-.01-.98.61-1.56,1.45-1.55ZM76.45,69.3c-.9.13-1.7-.37-1.7-1.4l-.02-5.11c0-.99.6-1.61,1.47-1.6.83.01,1.42.64,1.42,1.62v4.7c.01,1.06-.42,1.68-1.17,1.79Z"/>
  <path class="cls-1" d="M109.17,69.72c-1.41,1.46-2.74,2.53-4.52,3.87l-.03-38.01,4.51,3.68.04,30.46Z"/>
  <path class="cls-1" d="M4.51,35.59v38c-1.81-1.32-3.07-2.47-4.51-3.79v-30.53s4.51-3.68,4.51-3.68Z"/>
  <polygon class="cls-1" points="73.63 130.24 69.88 134.76 39.33 134.76 35.52 130.24 73.63 130.24"/>
  <path class="cls-1" d="M73.56,4.53h-38s3.77-4.53,3.77-4.53h30.5c1.29,1.53,2.64,2.84,3.73,4.53Z"/>
  <path class="cls-1" d="M82.2,123.58c-1.1.74-1.95,1.36-3.17,1.91l.02-21.86c1.15.59,2.14,1.19,3.14,1.94v18.01Z"/>
  <path class="cls-1" d="M30.12,125.49l-3.14-1.8-.03-18.11c1.03-.75,2-1.35,3.15-1.94l.02,21.85Z"/>
  <path class="cls-1" d="M29.27,82.18H11.14c-.67-1.07-1.31-1.87-1.83-3.11l20.68-.03c.36,1.07.14,2.01-.72,3.14Z"/>
  <path class="cls-1" d="M99.84,79.06l-1.75,3.14-17.97-.1c-1.06-.17-1.33-2.23-.96-3.04h20.68Z"/>
  <path class="cls-1" d="M99.77,30.08h-20.65c-.29-.93-.03-2.84.99-3.01l17.91-.11c.61,1.12,1.26,1.65,1.75,3.12Z"/>
  <path class="cls-1" d="M30.07,30.09H9.34c.46-1.26,1.14-2.02,1.79-3.1l17.91-.03c.92.71,1.28,1.56,1.03,3.13Z"/>
</svg>