<?xml version="1.0" encoding="UTF-8"?>
<svg id="Layer_1" data-name="Layer 1" xmlns="http://www.w3.org/2000/svg" viewBox="0 0 138.73 119.44">
  <defs>
    <style>
      .cls-1 {
        fill: #f70d34;
      }
    </style>
  </defs>
  <path class="cls-1" d="M123.15.02l-114.27-.02C4.83,0,0,4.24,0,8.38v95c0,4.96,5.41,8.61,9.97,8.61h96.57c-.62-.77-1.89-1.39-2.06-2.42l-3.84-22.91c-.17-.99.32-1.91,1.12-2.18.82-.26,1.73.04,2.4.7l8.52,8.47c.62.62,1.21,1.37,1.79,2.06-.63,1.25-.88,2.24-.27,3.41.39.73,1.3,1.59,2.4,1.76,1.47.22,2.96-.89,3.44-2.34.48-1.43-.43-2.66-1.24-3.3-1.16-.92-2.43-.74-3.77-.03-.45-.34-1.08-.79-1.51-1.22l-8.85-8.85c-.89-.88-1.45-2.04-.63-3.2.26-.36,1.2-.66,1.78-.56l22.22,3.7c3.55.59,2.85,3.7,4.24,4.52V10C132.28,5.21,128.29.02,123.15.02ZM122.08,27.01c0,1.86-1.42,3.49-3.53,3.49H13.61c-2.07,0-3.63-1.47-3.63-3.49v-13.43c0-1.86,1.48-3.45,3.43-3.45h105.23c1.94,0,3.44,1.59,3.44,3.45v13.43Z"/>
  <path class="cls-1" d="M138.28,106.66l-12.35,12.34c-1.98,1.98-4.54-3.33-7.37-4.95-3.2-1.82-6.84-2.62-10.17-4.03-.94-.4-1.76-.79-1.89-1.91l-3.27-20.2c3.1,2.65,5.78,5.43,8.45,8.3-.13,2.23.03,4.74,2.21,6.05,2.09,1.26,4.9,1.24,6.85-.53,2.27-2.06,2.21-5.84.03-7.99-1.45-1.42-3.49-1.46-5.33-1.29l-8.41-8.52,20.53,3.36c.58.09,1.22.63,1.43,1.15l4.2,10.84c1.52,2,3.66,3.56,5.31,5.48.41.48.24,1.45-.22,1.9Z"/>
  <path class="cls-1" d="M16.52,22.02c-.97.21-1.88-.3-2.17-1.23-.28-.9.19-2.05,1.37-2.31,1.07-.23,1.95.54,2.13,1.3.26,1.1-.38,2.04-1.33,2.24Z"/>
  <path class="cls-1" d="M23.7,22.02c-.96.21-1.87-.3-2.16-1.23-.28-.9.19-2.05,1.37-2.31,1.07-.23,1.95.53,2.13,1.3.26,1.09-.39,2.04-1.34,2.24Z"/>
  <path class="cls-1" d="M30.89,22.02c-.96.21-1.88-.3-2.16-1.23-.28-.9.19-2.05,1.37-2.31,1.07-.23,1.95.53,2.13,1.3.26,1.09-.39,2.04-1.34,2.24Z"/>
</svg>